#tb 0: 1/1000
0,          0,          0,        0,  3932160, 0xafab48e8
0,         29,         29,        0,  3932160, 0x47a47bf9
0,        129,        129,        0,  3932160, 0x9ffb4d10
0,        239,        239,        0,  3932160, 0x5eb6786b
0,        240,        240,        0,  3932160, 0x38b6ed92
0,        339,        339,        0,  3932160, 0x3ef8eaa4
0,        439,        439,        0,  3932160, 0x7ffa3289
0,        440,        440,        0,  3932160, 0x7da7699a
0,        539,        539,        0,  3932160, 0x7b155d8a
0,        540,        540,        0,  3932160, 0xf26fcddd
0,        649,        649,        0,  3932160, 0xea566b0b
0,        739,        739,        0,  3932160, 0x6e7f92ab
0,        740,        740,        0,  3932160, 0xb8f23669
0,        949,        949,        0,  3932160, 0x9738365d
0,       1439,       1439,        0,  3932160, 0x82051cc1
0,       3049,       3049,        0,  3932160, 0xd9ff1cc1
0,       3050,       3050,        0,  3932160, 0xb006d146
0,       3149,       3149,        0,  3932160, 0x79381d19
0,       3150,       3150,        0,  3932160, 0xefd735fc
0,       3449,       3449,        0,  3932160, 0x4c4983b4
0,       3450,       3450,        0,  3932160, 0x44dc88b7
0,       3549,       3549,        0,  3932160, 0xd6c86d49
0,       3550,       3550,        0,  3932160, 0xe288e81f
0,       3749,       3749,        0,  3932160, 0x0b57c172
0,       3849,       3849,        0,  3932160, 0x0b683895
0,       3850,       3850,        0,  3932160, 0xdb1e21bb
0,       3949,       3949,        0,  3932160, 0x25440443
0,       4049,       4049,        0,  3932160, 0xe07e071d
